<svg viewBox="0 0 86.03 21.109" xmlns="http://www.w3.org/2000/svg"><path d="m0 0a11.605 11.605 0 0 1 -1.462 3c-.88 1.29-1.793 2.571-3.232 2.6-1.413.027-1.868-.838-3.483-.838s-2.123.812-3.46.865c-1.388.053-2.446-1.39-3.333-2.672-1.813-2.621-3.2-7.407-1.337-10.635a5.166 5.166 0 0 1 4.367-2.648c1.365-.025 2.651.917 3.485.917s2.4-1.134 4.041-.968a4.939 4.939 0 0 1 3.861 2.091 4.781 4.781 0 0 0 -2.282 4.017 4.658 4.658 0 0 0 2.835 4.271m-5.492-12.113a4.646 4.646 0 0 0 1.1-3.371 4.713 4.713 0 0 0 -3.11 1.6 4.415 4.415 0 0 0 -1.12 3.264 3.915 3.915 0 0 0 3.131-1.492" transform="translate(17.19 15.484)"/><path d="m0 0h-.894l-.49-1.534h-1.7l-.47 1.534h-.871l1.688-5.239h1.037zm-1.534-2.181-.443-1.37c-.046-.14-.135-.47-.264-.989h-.016q-.077.336-.248.989l-.435 1.37z" transform="translate(29.861 10.333)"/><path d="m0 0h-.738l-.047-.575h-.015a1.307 1.307 0 0 1 -1.2.658 1.179 1.179 0 0 1 -.894-.349 1.841 1.841 0 0 1 -.4-1.29v-2.222h.835v2.084q0 1.089.75 1.089a.785.785 0 0 0 .788-.545.855.855 0 0 0 .055-.318v-2.31h.835v2.69q0 .536.031 1.088" transform="translate(33.593 10.333)"/><path d="m0 0h-.923v1.836q0 .7.489.7a1.548 1.548 0 0 0 .372-.036l.023.633a1.9 1.9 0 0 1 -.652.093 1 1 0 0 1 -.777-.3 1.49 1.49 0 0 1 -.279-1.026v-1.9h-.553v-.626h.553v-.691l.824-.248v.939h.923z" transform="translate(36.53 7.182)"/><path d="m0 0h-.835v-2.147q0-1.015-.764-1.015a.8.8 0 0 0 -.8.589 1.021 1.021 0 0 0 -.039.3v2.273h-.835v-5.51h.835v2.27h.016a1.274 1.274 0 0 1 1.135-.611 1.17 1.17 0 0 1 .863.342 1.713 1.713 0 0 1 .424 1.265z" transform="translate(40.589 10.333)"/><path d="m0 0a2.072 2.072 0 0 1 -.5 1.428 1.775 1.775 0 0 1 -1.38.572 1.691 1.691 0 0 1 -1.32-.549 2 2 0 0 1 -.5-1.389 2.049 2.049 0 0 1 .51-1.435 1.764 1.764 0 0 1 1.372-.559 1.724 1.724 0 0 1 1.336.551 1.982 1.982 0 0 1 .482 1.381m-.87.022a1.686 1.686 0 0 0 -.23-.89.833.833 0 0 0 -.754-.449.845.845 0 0 0 -.77.449 1.719 1.719 0 0 0 -.225.9 1.684 1.684 0 0 0 .225.89.85.85 0 0 0 .762.449.84.84 0 0 0 .762-.452 1.678 1.678 0 0 0 .23-.897" transform="translate(44.99 8.415)"/><path d="m0 0a1.725 1.725 0 0 0 -.266-.019.8.8 0 0 0 -.688.334 1.252 1.252 0 0 0 -.211.745v1.978h-.835v-2.588q0-.65-.021-1.189h.731l.031.724h.023a1.279 1.279 0 0 1 .42-.6 1.02 1.02 0 0 1 .606-.2 1.328 1.328 0 0 1 .21.015z" transform="translate(47.696 7.295)"/><path d="m0 0a.481.481 0 0 1 -.147.365.532.532 0 0 1 -.38.135.479.479 0 0 1 -.353-.139.492.492 0 0 1 -.143-.361.471.471 0 0 1 .147-.357.512.512 0 0 1 .365-.143.512.512 0 0 1 .364.14.471.471 0 0 1 .147.36m-.094 4.909h-.835v-3.778h.835z" transform="translate(49.34 5.424)"/><path d="m0 0a1.036 1.036 0 0 1 -.388.845 1.65 1.65 0 0 1 -1.073.318 2.2 2.2 0 0 1 -1.1-.255l.18-.618a1.8 1.8 0 0 0 .931.257q.65 0 .65-.472a.459.459 0 0 0 -.143-.345 1.5 1.5 0 0 0 -.5-.267q-1.009-.372-1.009-1.085a1.036 1.036 0 0 1 .372-.813 1.444 1.444 0 0 1 .986-.326 1.9 1.9 0 0 1 .954.225l-.179.6a1.5 1.5 0 0 0 -.77-.214.62.62 0 0 0 -.412.124.393.393 0 0 0 -.148.317.387.387 0 0 0 .156.318 1.743 1.743 0 0 0 .513.251q.98.372.98 1.14" transform="translate(52.521 9.243)"/><path d="m0 0a1.965 1.965 0 0 1 -.031.381h-2.526a1.1 1.1 0 0 0 .366.854 1.249 1.249 0 0 0 .826.265 2.8 2.8 0 0 0 1.02-.179l.132.585a3.149 3.149 0 0 1 -1.267.234 1.83 1.83 0 0 1 -1.379-.517 1.91 1.91 0 0 1 -.501-1.388 2.168 2.168 0 0 1 .466-1.423 1.613 1.613 0 0 1 1.323-.606 1.409 1.409 0 0 1 1.237.606 2.039 2.039 0 0 1 .334 1.188m-.8-.218a1.137 1.137 0 0 0 -.167-.645.735.735 0 0 0 -.67-.349.8.8 0 0 0 -.67.342 1.245 1.245 0 0 0 -.25.652z" transform="translate(56.448 8.266)"/><path d="m0 0h-.746l-.039-.606h-.023a1.254 1.254 0 0 1 -1.212.689 1.422 1.422 0 0 1 -1.135-.535 2.081 2.081 0 0 1 -.451-1.389 2.181 2.181 0 0 1 .493-1.482 1.515 1.515 0 0 1 1.171-.528 1.145 1.145 0 0 1 1.071.51v-2.169h.835v4.492q0 .552.036 1.018m-.871-1.592v-.627a1.172 1.172 0 0 0 -.024-.263.937.937 0 0 0 -.3-.506.816.816 0 0 0 -.559-.205.856.856 0 0 0 -.735.371 1.581 1.581 0 0 0 -.268.951 1.488 1.488 0 0 0 .257.905.861.861 0 0 0 .727.366.807.807 0 0 0 .661-.3 1.037 1.037 0 0 0 .241-.688" transform="translate(60.667 10.333)"/><path d="m0 0a1.394 1.394 0 0 1 -.466 1.087 2.075 2.075 0 0 1 -1.43.457 2.519 2.519 0 0 1 -1.36-.324l.194-.7a2.364 2.364 0 0 0 1.214.325 1.146 1.146 0 0 0 .738-.213.7.7 0 0 0 .265-.57.729.729 0 0 0 -.218-.536 2.038 2.038 0 0 0 -.723-.4q-1.376-.512-1.376-1.5a1.32 1.32 0 0 1 .486-1.055 1.921 1.921 0 0 1 1.285-.411 2.539 2.539 0 0 1 1.191.248l-.21.681a2.072 2.072 0 0 0 -1-.241 1.018 1.018 0 0 0 -.692.218.619.619 0 0 0 -.21.473.639.639 0 0 0 .241.513 2.736 2.736 0 0 0 .762.4 2.575 2.575 0 0 1 1 .637 1.328 1.328 0 0 1 .309.911" transform="translate(28.828 17.798)"/><path d="m0 0-.956 2.62a6.474 6.474 0 0 1 -1.282 2.395 1.825 1.825 0 0 1 -.925.474l-.2-.707a1.813 1.813 0 0 0 .568-.3 1.809 1.809 0 0 0 .528-.661.428.428 0 0 0 .062-.171.637.637 0 0 0 -.046-.179l-1.37-3.471h.921l.715 2.107q.1.286.226.746h.015q.071-.249.21-.754l.64-2.099z" transform="translate(32.626 15.492)"/><path d="m0 0a1.037 1.037 0 0 1 -.389.845 1.645 1.645 0 0 1 -1.072.318 2.2 2.2 0 0 1 -1.1-.255l.183-.618a1.8 1.8 0 0 0 .928.257q.65 0 .65-.472a.456.456 0 0 0 -.144-.345 1.479 1.479 0 0 0 -.5-.267q-1.008-.372-1.008-1.085a1.034 1.034 0 0 1 .372-.813 1.444 1.444 0 0 1 .986-.326 1.912 1.912 0 0 1 .954.224l-.179.6a1.5 1.5 0 0 0 -.77-.215.62.62 0 0 0 -.412.125.393.393 0 0 0 -.148.317.387.387 0 0 0 .156.318 1.743 1.743 0 0 0 .513.252q.98.372.98 1.14" transform="translate(35.425 18.179)"/><path d="m0 0h-.923v1.836q0 .7.489.7a1.548 1.548 0 0 0 .372-.036l.023.633a1.9 1.9 0 0 1 -.652.093 1 1 0 0 1 -.777-.3 1.49 1.49 0 0 1 -.279-1.026v-1.9h-.553v-.626h.553v-.691l.824-.248v.939h.923z" transform="translate(38.154 16.118)"/><path d="m0 0a1.965 1.965 0 0 1 -.031.381h-2.526a1.1 1.1 0 0 0 .366.855 1.253 1.253 0 0 0 .826.264 2.791 2.791 0 0 0 1.019-.179l.133.585a3.152 3.152 0 0 1 -1.267.234 1.83 1.83 0 0 1 -1.379-.517 1.91 1.91 0 0 1 -.501-1.388 2.168 2.168 0 0 1 .466-1.423 1.613 1.613 0 0 1 1.323-.606 1.41 1.41 0 0 1 1.237.606 2.039 2.039 0 0 1 .334 1.188m-.8-.218a1.137 1.137 0 0 0 -.167-.645.735.735 0 0 0 -.67-.349.8.8 0 0 0 -.67.342 1.245 1.245 0 0 0 -.25.652z" transform="translate(41.956 17.203)"/><path d="m0 0h-.835v-2.116q0-1.046-.711-1.046a.66.66 0 0 0 -.545.26.951.951 0 0 0 -.2.608v2.294h-.835v-2.224a1.187 1.187 0 0 0 -.175-.682.586.586 0 0 0 -.518-.256.679.679 0 0 0 -.56.279 1.006 1.006 0 0 0 -.218.635v2.248h-.825v-2.7q0-.5-.031-1.081h.725l.039.569h.024a1.264 1.264 0 0 1 1.153-.642 1.028 1.028 0 0 1 1.045.7h.016a1.487 1.487 0 0 1 .444-.474 1.335 1.335 0 0 1 .772-.23 1.107 1.107 0 0 1 .835.342 1.787 1.787 0 0 1 .4 1.28z" transform="translate(48.101 19.269)"/><path d="m0 0a1.036 1.036 0 0 1 -.388.845 1.65 1.65 0 0 1 -1.073.318 2.2 2.2 0 0 1 -1.1-.255l.18-.618a1.8 1.8 0 0 0 .931.257q.65 0 .65-.472a.459.459 0 0 0 -.143-.345 1.5 1.5 0 0 0 -.5-.267q-1.009-.372-1.009-1.085a1.034 1.034 0 0 1 .372-.813 1.444 1.444 0 0 1 .986-.326 1.912 1.912 0 0 1 .954.224l-.179.6a1.5 1.5 0 0 0 -.77-.215.62.62 0 0 0 -.412.125.393.393 0 0 0 -.148.317.387.387 0 0 0 .156.318 1.743 1.743 0 0 0 .513.252q.98.372.98 1.14" transform="translate(51.363 18.179)"/><path d="m54.046-1.712h.834v-5.239h-.834z" transform="translate(0 20.981)"/><path d="m0 0h-.835v-2.162q0-1-.764-1a.763.763 0 0 0 -.609.275.968.968 0 0 0 -.234.647v2.24h-.835v-2.7q0-.5-.031-1.081h.738l.038.584h.024a1.2 1.2 0 0 1 .435-.448 1.432 1.432 0 0 1 .761-.209 1.2 1.2 0 0 1 .877.342 1.658 1.658 0 0 1 .435 1.253z" transform="translate(59.249 19.269)"/><path d="m0 0h-.923v1.836q0 .7.489.7a1.548 1.548 0 0 0 .372-.036l.023.633a1.9 1.9 0 0 1 -.652.093 1 1 0 0 1 -.777-.3 1.49 1.49 0 0 1 -.279-1.026v-1.9h-.553v-.626h.553v-.691l.824-.248v.939h.923z" transform="translate(62.057 16.118)"/><path d="m0 0a1.965 1.965 0 0 1 -.031.381h-2.526a1.1 1.1 0 0 0 .366.855 1.253 1.253 0 0 0 .826.264 2.8 2.8 0 0 0 1.02-.179l.132.585a3.149 3.149 0 0 1 -1.267.234 1.83 1.83 0 0 1 -1.379-.517 1.91 1.91 0 0 1 -.501-1.388 2.168 2.168 0 0 1 .466-1.423 1.613 1.613 0 0 1 1.323-.606 1.409 1.409 0 0 1 1.237.606 2.039 2.039 0 0 1 .334 1.188m-.8-.218a1.137 1.137 0 0 0 -.167-.645.735.735 0 0 0 -.67-.349.8.8 0 0 0 -.67.342 1.245 1.245 0 0 0 -.25.652z" transform="translate(65.835 17.203)"/><path d="m0 0q-.031.459-.032 1.073v2.161a2.226 2.226 0 0 1 -.544 1.711 2.008 2.008 0 0 1 -1.4.45 2.4 2.4 0 0 1 -1.264-.295l.193-.646a2.046 2.046 0 0 0 1.071.284q1.11 0 1.109-1.194v-.365h-.015a1.2 1.2 0 0 1 -1.11.578 1.413 1.413 0 0 1 -1.125-.521 1.972 1.972 0 0 1 -.442-1.32 2.091 2.091 0 0 1 .513-1.469 1.507 1.507 0 0 1 1.158-.52 1.166 1.166 0 0 1 1.1.6h.016l.034-.527zm-.867 2.167v-.667a.96.96 0 0 0 -.233-.654.8.8 0 0 0 -.632-.272.855.855 0 0 0 -.705.358 1.514 1.514 0 0 0 -.277.955 1.406 1.406 0 0 0 .257.879.85.85 0 0 0 .725.365.818.818 0 0 0 .5-.167.9.9 0 0 0 .316-.455 1.092 1.092 0 0 0 .046-.342" transform="translate(69.992 15.492)"/><path d="m0 0a1.725 1.725 0 0 0 -.266-.019.8.8 0 0 0 -.688.334 1.252 1.252 0 0 0 -.211.745v1.978h-.835v-2.588q0-.65-.021-1.189h.731l.031.724h.023a1.279 1.279 0 0 1 .42-.6 1.018 1.018 0 0 1 .606-.2 1.328 1.328 0 0 1 .21.015z" transform="translate(72.999 16.231)"/><path d="m0 0h-.754l-.062-.435h-.023a1.3 1.3 0 0 1 -1.1.518 1.135 1.135 0 0 1 -.862-.341 1.074 1.074 0 0 1 -.295-.77 1.177 1.177 0 0 1 .577-1.057 3 3 0 0 1 1.619-.357v-.07c0-.5-.262-.744-.783-.744a1.749 1.749 0 0 0 -.985.28l-.17-.55a2.423 2.423 0 0 1 1.293-.325q1.479 0 1.479 1.561v1.39a4.959 4.959 0 0 0 .066.9m-.87-1.3v-.58q-1.4-.024-1.4.758a.566.566 0 0 0 .17.443.592.592 0 0 0 .411.147.849.849 0 0 0 .515-.174.71.71 0 0 0 .291-.445.623.623 0 0 0 .013-.149" transform="translate(76.434 19.269)"/><path d="m0 0h-.923v1.836q0 .7.489.7a1.548 1.548 0 0 0 .372-.036l.023.633a1.9 1.9 0 0 1 -.652.093 1 1 0 0 1 -.777-.3 1.49 1.49 0 0 1 -.279-1.026v-1.9h-.553v-.626h.553v-.691l.824-.248v.939h.923z" transform="translate(79.223 16.118)"/><path d="m0 0a2.07 2.07 0 0 1 -.5 1.428 1.775 1.775 0 0 1 -1.38.572 1.691 1.691 0 0 1 -1.32-.549 2 2 0 0 1 -.5-1.389 2.049 2.049 0 0 1 .51-1.435 1.763 1.763 0 0 1 1.372-.559 1.727 1.727 0 0 1 1.336.551 1.982 1.982 0 0 1 .482 1.381m-.87.022a1.688 1.688 0 0 0 -.23-.89.833.833 0 0 0 -.754-.449.844.844 0 0 0 -.77.449 1.72 1.72 0 0 0 -.225.906 1.682 1.682 0 0 0 .225.889.848.848 0 0 0 .762.449.841.841 0 0 0 .762-.456 1.684 1.684 0 0 0 .23-.898" transform="translate(83.332 17.351)"/><path d="m0 0a1.725 1.725 0 0 0 -.266-.019.8.8 0 0 0 -.688.334 1.252 1.252 0 0 0 -.211.745v1.978h-.835v-2.588c0-.435-.008-.832-.021-1.189h.73l.031.724h.023a1.279 1.279 0 0 1 .42-.6 1.02 1.02 0 0 1 .606-.2 1.328 1.328 0 0 1 .211.015z" transform="translate(86.03 16.231)"/></svg>