<svg xmlns="http://www.w3.org/2000/svg" width="86.03" height="21.109" viewBox="0 0 86.03 21.109">
  <g id="Group_472" data-name="Group 472" transform="translate(4442 113.019)">
    <g id="Group_209" data-name="Group 209" transform="translate(-4424.81 -97.535)">
      <path id="Path_36" data-name="Path 36" d="M0,0A11.605,11.605,0,0,1-1.462,3C-2.342,4.29-3.255,5.571-4.694,5.6c-1.413.027-1.868-.838-3.483-.838s-2.123.812-3.46.865c-1.388.053-2.446-1.39-3.333-2.672-1.813-2.621-3.2-7.407-1.337-10.635a5.166,5.166,0,0,1,4.367-2.648c1.365-.025,2.651.917,3.485.917s2.4-1.134,4.041-.968A4.939,4.939,0,0,1-.553-8.288,4.781,4.781,0,0,0-2.835-4.271,4.658,4.658,0,0,0,0,0M-5.492-12.113a4.646,4.646,0,0,0,1.1-3.371,4.713,4.713,0,0,0-3.11,1.6,4.415,4.415,0,0,0-1.12,3.264,3.915,3.915,0,0,0,3.131-1.492" fill="#fff"/>
    </g>
    <g id="Group_210" data-name="Group 210" transform="translate(-4412.139 -102.686)">
      <path id="Path_37" data-name="Path 37" d="M0,0H-.894l-.49-1.534h-1.7L-3.554,0h-.871l1.688-5.239H-1.7ZM-1.534-2.181l-.443-1.37c-.046-.14-.135-.47-.264-.989h-.016q-.077.336-.248.989l-.435,1.37Z" fill="#fff"/>
    </g>
    <g id="Group_211" data-name="Group 211" transform="translate(-4408.407 -102.686)">
      <path id="Path_38" data-name="Path 38" d="M0,0H-.738L-.785-.575H-.8A1.307,1.307,0,0,1-2,.083a1.179,1.179,0,0,1-.894-.349,1.841,1.841,0,0,1-.4-1.29V-3.778h.835v2.084q0,1.089.75,1.089A.785.785,0,0,0-.921-1.15a.855.855,0,0,0,.055-.318v-2.31h.835v2.69Q-.031-.552,0,0" fill="#fff"/>
    </g>
    <g id="Group_212" data-name="Group 212" transform="translate(-4405.47 -105.837)">
      <path id="Path_39" data-name="Path 39" d="M0,0H-.923V1.836q0,.7.489.7A1.548,1.548,0,0,0-.062,2.5l.023.633a1.9,1.9,0,0,1-.652.093,1,1,0,0,1-.777-.3A1.49,1.49,0,0,1-1.747,1.9V0H-2.3V-.626h.553v-.691l.824-.248v.939H0Z" fill="#fff"/>
    </g>
    <g id="Group_213" data-name="Group 213" transform="translate(-4401.411 -102.686)">
      <path id="Path_40" data-name="Path 40" d="M0,0H-.835V-2.147q0-1.015-.764-1.015a.8.8,0,0,0-.8.589,1.021,1.021,0,0,0-.039.3V0h-.835V-5.51h.835v2.27h.016a1.274,1.274,0,0,1,1.135-.611,1.17,1.17,0,0,1,.863.342A1.713,1.713,0,0,1,0-2.244Z" fill="#fff"/>
    </g>
    <g id="Group_214" data-name="Group 214" transform="translate(-4397.01 -104.604)">
      <path id="Path_41" data-name="Path 41" d="M0,0A2.072,2.072,0,0,1-.5,1.428,1.775,1.775,0,0,1-1.88,2,1.691,1.691,0,0,1-3.2,1.451,2,2,0,0,1-3.7.062,2.049,2.049,0,0,1-3.19-1.373a1.764,1.764,0,0,1,1.372-.559,1.724,1.724,0,0,1,1.336.551A1.982,1.982,0,0,1,0,0M-.87.022A1.686,1.686,0,0,0-1.1-.868a.833.833,0,0,0-.754-.449.845.845,0,0,0-.77.449,1.719,1.719,0,0,0-.225.9,1.684,1.684,0,0,0,.225.89.85.85,0,0,0,.762.449A.84.84,0,0,0-1.1.919,1.678,1.678,0,0,0-.87.022" fill="#fff"/>
    </g>
    <g id="Group_215" data-name="Group 215" transform="translate(-4394.304 -105.724)">
      <path id="Path_42" data-name="Path 42" d="M0,0A1.725,1.725,0,0,0-.266-.019.8.8,0,0,0-.954.315a1.252,1.252,0,0,0-.211.745V3.038H-2V.45Q-2-.2-2.021-.739h.731l.031.724h.023a1.279,1.279,0,0,1,.42-.6,1.02,1.02,0,0,1,.606-.2A1.328,1.328,0,0,1,0-.8Z" fill="#fff"/>
    </g>
    <g id="Group_216" data-name="Group 216" transform="translate(-4392.66 -107.595)">
      <path id="Path_43" data-name="Path 43" d="M0,0A.481.481,0,0,1-.147.365.532.532,0,0,1-.527.5.479.479,0,0,1-.88.361.492.492,0,0,1-1.023,0,.471.471,0,0,1-.876-.357.512.512,0,0,1-.511-.5a.512.512,0,0,1,.364.14A.471.471,0,0,1,0,0M-.094,4.909H-.929V1.131h.835Z" fill="#fff"/>
    </g>
    <g id="Group_217" data-name="Group 217" transform="translate(-4389.479 -103.776)">
      <path id="Path_44" data-name="Path 44" d="M0,0A1.036,1.036,0,0,1-.388.845a1.65,1.65,0,0,1-1.073.318,2.2,2.2,0,0,1-1.1-.255l.18-.618A1.8,1.8,0,0,0-1.45.547Q-.8.547-.8.075A.459.459,0,0,0-.943-.27a1.5,1.5,0,0,0-.5-.267Q-2.452-.909-2.452-1.622a1.036,1.036,0,0,1,.372-.813,1.444,1.444,0,0,1,.986-.326,1.9,1.9,0,0,1,.954.225l-.179.6a1.5,1.5,0,0,0-.77-.214.62.62,0,0,0-.412.124.393.393,0,0,0-.148.317.387.387,0,0,0,.156.318A1.743,1.743,0,0,0-.98-1.14Q0-.768,0,0" fill="#fff"/>
    </g>
    <g id="Group_218" data-name="Group 218" transform="translate(-4385.552 -104.753)">
      <path id="Path_45" data-name="Path 45" d="M0,0A1.965,1.965,0,0,1-.031.381H-2.557a1.1,1.1,0,0,0,.366.854,1.249,1.249,0,0,0,.826.265,2.8,2.8,0,0,0,1.02-.179l.132.585A3.149,3.149,0,0,1-1.48,2.14a1.83,1.83,0,0,1-1.379-.517A1.91,1.91,0,0,1-3.36.235a2.168,2.168,0,0,1,.466-1.423,1.613,1.613,0,0,1,1.323-.606,1.409,1.409,0,0,1,1.237.606A2.039,2.039,0,0,1,0,0M-.8-.218A1.137,1.137,0,0,0-.967-.863a.735.735,0,0,0-.67-.349.8.8,0,0,0-.67.342,1.245,1.245,0,0,0-.25.652Z" fill="#fff"/>
    </g>
    <g id="Group_219" data-name="Group 219" transform="translate(-4381.333 -102.686)">
      <path id="Path_46" data-name="Path 46" d="M0,0H-.746L-.785-.606H-.808A1.254,1.254,0,0,1-2.02.083,1.422,1.422,0,0,1-3.155-.452a2.081,2.081,0,0,1-.451-1.389,2.181,2.181,0,0,1,.493-1.482,1.515,1.515,0,0,1,1.171-.528,1.145,1.145,0,0,1,1.071.51V-5.51h.835v4.492Q-.036-.466,0,0M-.871-1.592v-.627a1.172,1.172,0,0,0-.024-.263.937.937,0,0,0-.3-.506.816.816,0,0,0-.559-.205.856.856,0,0,0-.735.371,1.581,1.581,0,0,0-.268.951A1.488,1.488,0,0,0-2.5-.966.861.861,0,0,0-1.773-.6.807.807,0,0,0-1.112-.9a1.037,1.037,0,0,0,.241-.688" fill="#fff"/>
    </g>
    <g id="Group_220" data-name="Group 220" transform="translate(-4413.172 -95.221)">
      <path id="Path_47" data-name="Path 47" d="M0,0A1.394,1.394,0,0,1-.466,1.087a2.075,2.075,0,0,1-1.43.457,2.519,2.519,0,0,1-1.36-.324l.194-.7A2.364,2.364,0,0,0-1.848.845,1.146,1.146,0,0,0-1.11.632.7.7,0,0,0-.845.062a.729.729,0,0,0-.218-.536,2.038,2.038,0,0,0-.723-.4q-1.376-.512-1.376-1.5a1.32,1.32,0,0,1,.486-1.055A1.921,1.921,0,0,1-1.391-3.84,2.539,2.539,0,0,1-.2-3.592l-.21.681a2.072,2.072,0,0,0-1-.241,1.018,1.018,0,0,0-.692.218.619.619,0,0,0-.21.473.639.639,0,0,0,.241.513,2.736,2.736,0,0,0,.762.4,2.575,2.575,0,0,1,1,.637A1.328,1.328,0,0,1,0,0" fill="#fff"/>
    </g>
    <g id="Group_221" data-name="Group 221" transform="translate(-4409.374 -97.527)">
      <path id="Path_48" data-name="Path 48" d="M0,0-.956,2.62A6.474,6.474,0,0,1-2.238,5.015a1.825,1.825,0,0,1-.925.474l-.2-.707a1.813,1.813,0,0,0,.568-.3,1.809,1.809,0,0,0,.528-.661.428.428,0,0,0,.062-.171.637.637,0,0,0-.046-.179L-3.621,0H-2.7l.715,2.107q.1.286.226.746h.015q.071-.249.21-.754L-.894,0Z" fill="#fff"/>
    </g>
    <g id="Group_222" data-name="Group 222" transform="translate(-4406.575 -94.84)">
      <path id="Path_49" data-name="Path 49" d="M0,0A1.037,1.037,0,0,1-.389.845a1.645,1.645,0,0,1-1.072.318,2.2,2.2,0,0,1-1.1-.255L-2.378.29A1.8,1.8,0,0,0-1.45.547Q-.8.547-.8.075A.456.456,0,0,0-.944-.27a1.479,1.479,0,0,0-.5-.267Q-2.452-.909-2.452-1.622a1.034,1.034,0,0,1,.372-.813,1.444,1.444,0,0,1,.986-.326,1.912,1.912,0,0,1,.954.224l-.179.6a1.5,1.5,0,0,0-.77-.215.62.62,0,0,0-.412.125.393.393,0,0,0-.148.317.387.387,0,0,0,.156.318A1.743,1.743,0,0,0-.98-1.14Q0-.768,0,0" fill="#fff"/>
    </g>
    <g id="Group_223" data-name="Group 223" transform="translate(-4403.846 -96.901)">
      <path id="Path_50" data-name="Path 50" d="M0,0H-.923V1.836q0,.7.489.7A1.548,1.548,0,0,0-.062,2.5l.023.633a1.9,1.9,0,0,1-.652.093,1,1,0,0,1-.777-.3A1.49,1.49,0,0,1-1.747,1.9V0H-2.3V-.626h.553v-.691l.824-.248v.939H0Z" fill="#fff"/>
    </g>
    <g id="Group_224" data-name="Group 224" transform="translate(-4400.044 -95.816)">
      <path id="Path_51" data-name="Path 51" d="M0,0A1.965,1.965,0,0,1-.031.381H-2.557a1.1,1.1,0,0,0,.366.855,1.253,1.253,0,0,0,.826.264A2.791,2.791,0,0,0-.346,1.321l.133.585A3.152,3.152,0,0,1-1.48,2.14a1.83,1.83,0,0,1-1.379-.517A1.91,1.91,0,0,1-3.36.235a2.168,2.168,0,0,1,.466-1.423,1.613,1.613,0,0,1,1.323-.606,1.41,1.41,0,0,1,1.237.606A2.039,2.039,0,0,1,0,0M-.8-.218A1.137,1.137,0,0,0-.967-.863a.735.735,0,0,0-.67-.349.8.8,0,0,0-.67.342,1.245,1.245,0,0,0-.25.652Z" fill="#fff"/>
    </g>
    <g id="Group_225" data-name="Group 225" transform="translate(-4393.899 -93.75)">
      <path id="Path_52" data-name="Path 52" d="M0,0H-.835V-2.116q0-1.046-.711-1.046a.66.66,0,0,0-.545.26.951.951,0,0,0-.2.608V0h-.835V-2.224a1.187,1.187,0,0,0-.175-.682.586.586,0,0,0-.518-.256.679.679,0,0,0-.56.279,1.006,1.006,0,0,0-.218.635V0h-.825V-2.7q0-.5-.031-1.081h.725l.039.569h.024a1.264,1.264,0,0,1,1.153-.642,1.028,1.028,0,0,1,1.045.7h.016a1.487,1.487,0,0,1,.444-.474,1.335,1.335,0,0,1,.772-.23,1.107,1.107,0,0,1,.835.342A1.787,1.787,0,0,1,0-2.236Z" fill="#fff"/>
    </g>
    <g id="Group_226" data-name="Group 226" transform="translate(-4390.637 -94.84)">
      <path id="Path_53" data-name="Path 53" d="M0,0A1.036,1.036,0,0,1-.388.845a1.65,1.65,0,0,1-1.073.318,2.2,2.2,0,0,1-1.1-.255l.18-.618A1.8,1.8,0,0,0-1.45.547Q-.8.547-.8.075A.459.459,0,0,0-.943-.27a1.5,1.5,0,0,0-.5-.267Q-2.452-.909-2.452-1.622a1.034,1.034,0,0,1,.372-.813,1.444,1.444,0,0,1,.986-.326,1.912,1.912,0,0,1,.954.224l-.179.6a1.5,1.5,0,0,0-.77-.215.62.62,0,0,0-.412.125.393.393,0,0,0-.148.317.387.387,0,0,0,.156.318A1.743,1.743,0,0,0-.98-1.14Q0-.768,0,0" fill="#fff"/>
    </g>
    <path id="Path_55" data-name="Path 55" d="M54.046-1.712h.834V-6.951h-.834Z" transform="translate(-4442 -92.038)" fill="#fff"/>
    <g id="Group_228" data-name="Group 228" transform="translate(-4382.751 -93.75)">
      <path id="Path_56" data-name="Path 56" d="M0,0H-.835V-2.162q0-1-.764-1a.763.763,0,0,0-.609.275.968.968,0,0,0-.234.647V0h-.835V-2.7q0-.5-.031-1.081h.738l.038.584h.024a1.2,1.2,0,0,1,.435-.448,1.432,1.432,0,0,1,.761-.209,1.2,1.2,0,0,1,.877.342A1.658,1.658,0,0,1,0-2.259Z" fill="#fff"/>
    </g>
    <g id="Group_229" data-name="Group 229" transform="translate(-4379.943 -96.901)">
      <path id="Path_57" data-name="Path 57" d="M0,0H-.923V1.836q0,.7.489.7A1.548,1.548,0,0,0-.062,2.5l.023.633a1.9,1.9,0,0,1-.652.093,1,1,0,0,1-.777-.3A1.49,1.49,0,0,1-1.747,1.9V0H-2.3V-.626h.553v-.691l.824-.248v.939H0Z" fill="#fff"/>
    </g>
    <g id="Group_230" data-name="Group 230" transform="translate(-4376.165 -95.816)">
      <path id="Path_58" data-name="Path 58" d="M0,0A1.965,1.965,0,0,1-.031.381H-2.557a1.1,1.1,0,0,0,.366.855,1.253,1.253,0,0,0,.826.264,2.8,2.8,0,0,0,1.02-.179l.132.585A3.149,3.149,0,0,1-1.48,2.14a1.83,1.83,0,0,1-1.379-.517A1.91,1.91,0,0,1-3.36.235a2.168,2.168,0,0,1,.466-1.423,1.613,1.613,0,0,1,1.323-.606,1.409,1.409,0,0,1,1.237.606A2.039,2.039,0,0,1,0,0M-.8-.218A1.137,1.137,0,0,0-.967-.863a.735.735,0,0,0-.67-.349.8.8,0,0,0-.67.342,1.245,1.245,0,0,0-.25.652Z" fill="#fff"/>
    </g>
    <g id="Group_231" data-name="Group 231" transform="translate(-4372.008 -97.527)">
      <path id="Path_59" data-name="Path 59" d="M0,0Q-.031.459-.032,1.073V3.234A2.226,2.226,0,0,1-.576,4.945a2.008,2.008,0,0,1-1.4.45A2.4,2.4,0,0,1-3.24,5.1l.193-.646a2.046,2.046,0,0,0,1.071.284q1.11,0,1.109-1.194V3.179H-.882a1.2,1.2,0,0,1-1.11.578,1.413,1.413,0,0,1-1.125-.521,1.972,1.972,0,0,1-.442-1.32A2.091,2.091,0,0,1-3.046.447a1.507,1.507,0,0,1,1.158-.52,1.166,1.166,0,0,1,1.1.6h.016L-.738,0ZM-.867,2.167V1.5A.96.96,0,0,0-1.1.846.8.8,0,0,0-1.732.574a.855.855,0,0,0-.705.358,1.514,1.514,0,0,0-.277.955,1.406,1.406,0,0,0,.257.879.85.85,0,0,0,.725.365.818.818,0,0,0,.5-.167.9.9,0,0,0,.316-.455,1.092,1.092,0,0,0,.046-.342" fill="#fff"/>
    </g>
    <g id="Group_232" data-name="Group 232" transform="translate(-4369.001 -96.788)">
      <path id="Path_60" data-name="Path 60" d="M0,0A1.725,1.725,0,0,0-.266-.019.8.8,0,0,0-.954.315a1.252,1.252,0,0,0-.211.745V3.038H-2V.45Q-2-.2-2.021-.739h.731l.031.724h.023a1.279,1.279,0,0,1,.42-.6,1.018,1.018,0,0,1,.606-.2A1.328,1.328,0,0,1,0-.8Z" fill="#fff"/>
    </g>
    <g id="Group_233" data-name="Group 233" transform="translate(-4365.566 -93.75)">
      <path id="Path_61" data-name="Path 61" d="M0,0H-.754L-.816-.435H-.839a1.3,1.3,0,0,1-1.1.518,1.135,1.135,0,0,1-.862-.341,1.074,1.074,0,0,1-.295-.77,1.177,1.177,0,0,1,.577-1.057A3,3,0,0,1-.9-2.442v-.07c0-.5-.262-.744-.783-.744a1.749,1.749,0,0,0-.985.28l-.17-.55a2.423,2.423,0,0,1,1.293-.325q1.479,0,1.479,1.561V-.9A4.959,4.959,0,0,0,0,0M-.87-1.3v-.58q-1.4-.024-1.4.758A.566.566,0,0,0-2.1-.679a.592.592,0,0,0,.411.147.849.849,0,0,0,.515-.174.71.71,0,0,0,.291-.445A.623.623,0,0,0-.87-1.3" fill="#fff"/>
    </g>
    <g id="Group_234" data-name="Group 234" transform="translate(-4362.777 -96.901)">
      <path id="Path_62" data-name="Path 62" d="M0,0H-.923V1.836q0,.7.489.7A1.548,1.548,0,0,0-.062,2.5l.023.633a1.9,1.9,0,0,1-.652.093,1,1,0,0,1-.777-.3A1.49,1.49,0,0,1-1.747,1.9V0H-2.3V-.626h.553v-.691l.824-.248v.939H0Z" fill="#fff"/>
    </g>
    <g id="Group_235" data-name="Group 235" transform="translate(-4358.668 -95.668)">
      <path id="Path_63" data-name="Path 63" d="M0,0A2.07,2.07,0,0,1-.5,1.428,1.775,1.775,0,0,1-1.88,2,1.691,1.691,0,0,1-3.2,1.451,2,2,0,0,1-3.7.062,2.049,2.049,0,0,1-3.19-1.373a1.763,1.763,0,0,1,1.372-.559,1.727,1.727,0,0,1,1.336.551A1.982,1.982,0,0,1,0,0M-.87.022A1.688,1.688,0,0,0-1.1-.868a.833.833,0,0,0-.754-.449.844.844,0,0,0-.77.449,1.72,1.72,0,0,0-.225.906,1.682,1.682,0,0,0,.225.889.848.848,0,0,0,.762.449A.841.841,0,0,0-1.1.92,1.684,1.684,0,0,0-.87.022" fill="#fff"/>
    </g>
    <g id="Group_236" data-name="Group 236" transform="translate(-4355.97 -96.788)">
      <path id="Path_64" data-name="Path 64" d="M0,0A1.725,1.725,0,0,0-.266-.019.8.8,0,0,0-.954.315a1.252,1.252,0,0,0-.211.745V3.038H-2V.45c0-.435-.008-.832-.021-1.189h.73l.031.724h.023a1.279,1.279,0,0,1,.42-.6,1.02,1.02,0,0,1,.606-.2A1.328,1.328,0,0,1,0-.8Z" fill="#fff"/>
    </g>
  </g>
</svg>
